<svg width="309" height="696" viewBox="0 0 309 696" fill="none" xmlns="http://www.w3.org/2000/svg">
<path d="M0.157196 238.822L296.271 0.59082L302.535 8.37777L6.422 246.609L0.157196 238.822Z" fill="#673100"/>
<path d="M292.273 3.57427L289.833 5.32007L295.91 13.8117L296 13.7471V681H298V12.316L298.349 12.0659L292.273 3.57427Z" fill="black"/>
<path d="M298.398 684.208C299.147 683.774 299.651 682.965 299.651 682.037C299.651 680.654 298.529 679.532 297.146 679.532C295.762 679.532 294.64 680.654 294.64 682.037C294.64 682.965 295.144 683.774 295.893 684.208V691.16L296.079 691.462C296.543 692.216 297.177 693.05 297.932 693.772C298.678 694.486 299.609 695.153 300.674 695.467C301.784 695.795 303.005 695.724 304.172 694.999C305.291 694.304 306.244 693.079 307.051 691.331L307.167 691.081V686.637H308.768L306.091 682L303.414 686.637H304.661V690.524C304.005 691.87 303.365 692.551 302.849 692.871C302.351 693.181 301.881 693.212 301.384 693.065C300.841 692.904 300.248 692.52 299.663 691.961C299.178 691.498 298.745 690.958 298.398 690.439V684.208Z" fill="#D9D9D9"/>
<path d="M55.3913 217.318C55.3913 220.777 52.5872 223.581 49.1282 223.581C45.6692 223.581 42.8651 220.777 42.8651 217.318C42.8651 213.859 45.6692 211.055 49.1282 211.055C52.5872 211.055 55.3913 213.859 55.3913 217.318Z" fill="#D9D9D9"/>
</svg>
