<svg width="623" height="289" viewBox="0 0 623 289" fill="none" xmlns="http://www.w3.org/2000/svg">
<path d="M460.003 26.5C460.003 91.3935 392.398 144 309.003 144C225.608 144 158.003 91.3935 158.003 26.5C158.003 -38.3935 225.608 -91 309.003 -91C392.398 -91 460.003 -38.3935 460.003 26.5Z" fill="#FFE456"/>
<path d="M1.00342 37.5482L120.709 14L128.044 51.2854L8.33812 74.8337L1.00342 37.5482Z" fill="#FFE456"/>
<path d="M0 185.206L143.243 75L173.707 114.597L30.4646 224.803L0 185.206Z" fill="#FFE456"/>
<path d="M147.185 269.966L201.915 135.99L248.165 154.884L193.435 288.859L147.185 269.966Z" fill="#FFE456"/>
<path d="M291.307 256.455L290.003 165.542L321.7 165.088L323.003 256L291.307 256.455Z" fill="#FFE456"/>
<path d="M400.622 277.08L359.003 160.672L398.385 146.592L440.003 263L400.622 277.08Z" fill="#FFE456"/>
<path d="M537.003 266L426.817 130.33L460.468 103L570.654 238.67L537.003 266Z" fill="#FFE456"/>
<path d="M602.694 152.654L471.003 78.8126L489.313 46.1588L621.003 120L602.694 152.654Z" fill="#FFE456"/>
<path d="M621.003 38L490.479 29.7974L492.351 7.62939e-06L622.876 8.20264L621.003 38Z" fill="#FFE456"/>
</svg>
