<svg width="3840" height="590" viewBox="0 0 3840 590" fill="none" xmlns="http://www.w3.org/2000/svg">
<path fill-rule="evenodd" clip-rule="evenodd" d="M1920 21.6128C1920 21.6128 2033.66 11.2524 2114.27 37.3787C2139.43 45.5322 2160.15 53.949 2179.29 61.7253C2221.49 78.8667 2256.03 92.8964 2313.55 94.1359C2353.8 95.0032 2417.48 74.8924 2486.5 53.0948C2560.87 29.6079 2641.45 4.16272 2705.59 0.891918C2769.86 -2.38555 2827.38 19.522 2885.44 41.6381C2939.09 62.0768 2993.21 82.6937 3053.57 83.7754C3125.73 85.0686 3183.71 60.8855 3233.64 40.0548C3270.68 24.6054 3303.3 11 3334 11C3356.17 11 3398.37 19.9669 3442.08 29.2522C3491.01 39.6496 3541.82 50.4463 3568.5 49.5C3599.64 48.3953 3639.15 44.3508 3674.01 40.7823C3695.68 38.5642 3715.55 36.53 3730.5 35.5C3769.5 32.8128 3840 21.6128 3840 21.6128V590H1920H0V21.6128C0 21.6128 113.658 11.2524 194.27 37.3787C219.427 45.5322 240.147 53.9489 259.29 61.7253C301.488 78.8667 336.025 92.8964 393.547 94.1359C433.795 95.0032 497.478 74.8924 566.501 53.0948C640.874 29.6079 721.449 4.16272 785.591 0.891918C849.864 -2.38556 907.376 19.522 965.435 41.6381C1019.09 62.0768 1073.21 82.6937 1133.57 83.7754C1205.73 85.0686 1263.71 60.8855 1313.64 40.0548C1350.68 24.6054 1383.3 11 1414 11C1436.17 11 1478.37 19.9669 1522.08 29.2522C1571.01 39.6496 1621.82 50.4463 1648.5 49.5C1679.64 48.3953 1719.15 44.3508 1754.01 40.7823C1775.68 38.5642 1795.55 36.53 1810.5 35.5C1849.5 32.8128 1920 21.6128 1920 21.6128Z" fill="#6280CB"/>
</svg>
