<svg width="3840" height="661" viewBox="0 0 3840 661" fill="none" xmlns="http://www.w3.org/2000/svg">
<path fill-rule="evenodd" clip-rule="evenodd" d="M0 82.0017C0 82.0017 292.246 -18.0149 434.123 2.86765C500.069 12.5741 578.644 34.5097 652.789 55.2088C738.16 79.0419 817.659 101.236 865.249 101.236C910.027 101.236 956.072 84.0957 1001.79 67.0777C1046.86 50.3005 1091.61 33.642 1134.52 33.642C1179.11 33.642 1225.61 53.8712 1271.84 73.9862C1315.23 92.8583 1358.38 111.63 1399.5 113.5C1436.14 115.166 1459.26 107.092 1488.59 96.8534C1527.25 83.3524 1576.7 66.0881 1682.12 62.4308C1791.45 58.6381 1836.82 70.8226 1866.11 78.688C1886.49 84.1591 1899.08 87.5405 1920 82.0017C1920 82.0017 2212.25 -18.0149 2354.12 2.86765C2420.07 12.5741 2498.64 34.5097 2572.79 55.2088C2658.16 79.0418 2737.66 101.236 2785.25 101.236C2830.03 101.236 2876.07 84.0956 2921.79 67.0777C2966.86 50.3005 3011.61 33.642 3054.52 33.642C3099.11 33.642 3145.61 53.8713 3191.84 73.9862C3235.23 92.8584 3278.38 111.63 3319.5 113.5C3356.14 115.166 3379.26 107.092 3408.59 96.8534C3447.25 83.3524 3496.7 66.0881 3602.12 62.4308C3711.45 58.6381 3756.82 70.8226 3786.11 78.688C3806.49 84.1591 3819.08 87.5405 3840 82.0017V661H1920H0V82.0017Z" fill="#819FEA" fill-opacity="0.8"/>
</svg>
